<?xml version="1.0" encoding="utf-8" ?><svg xmlns="http://www.w3.org/2000/svg" xmlns:xlink="http://www.w3.org/1999/xlink" width="2362" height="1724" viewBox="0 0 2362 1724"><defs><linearGradient id="gradient_0" gradientUnits="userSpaceOnUse" x1="349.79037" y1="478.19373" x2="427.13522" y2="482.11688"><stop offset="0" stop-color="#1E1E1E"/><stop offset="1" stop-color="#494949"/></linearGradient></defs><path fill="url(#gradient_0)" transform="matrix(1.99493 0 0 1.99537 0 1.52588e-05)" d="M376.663 443.192C396.357 441.17 424.678 441.752 427.676 467.821C430.254 490.231 428.913 513.417 401.782 517.535C380.113 517.81 353.595 521.124 349.65 491.607C346.71 469.617 350.248 446.184 376.663 443.192Z"/><path transform="matrix(1.99493 0 0 1.99537 0 1.52588e-05)" d="M384.29 455.997C410.168 455.641 416.48 458.338 414.982 486.44C414.209 500.959 408.177 504.217 394.689 504.578C380.736 504.686 362.828 506.923 362.386 487.412C361.929 467.248 360.972 456.642 384.29 455.997Z"/><defs><linearGradient id="gradient_1" gradientUnits="userSpaceOnUse" x1="744.73718" y1="484.91748" x2="670.34509" y2="475.96661"><stop offset="0" stop-color="#5E5E5F"/><stop offset="1" stop-color="#888787"/></linearGradient></defs><path fill="url(#gradient_1)" transform="matrix(1.99493 0 0 1.99537 0 1.52588e-05)" d="M731.224 443.851C731.754 443.841 732.283 443.835 732.813 443.834C737.162 443.825 741.842 443.946 742.181 449.451C742.654 457.142 742.472 464.92 742.47 472.634L742.431 516.587L729.199 516.664C729.142 508.918 729.146 501.172 729.211 493.426C716.503 493.411 697.006 493.231 683.646 493.608C683.333 493.893 683.021 494.178 682.708 494.464L682.725 516.891L669.502 516.925C669.458 506.869 668.652 478.807 670.7 470.588C672.228 464.376 675.388 458.685 679.853 454.104C692.95 440.836 713.246 443.889 731.224 443.851Z"/><path transform="matrix(1.99493 0 0 1.99537 0 1.52588e-05)" d="M701.217 457.517C710.033 457.054 720.182 457.309 729.1 457.337L729.138 480.219L710.855 480.268C702.849 480.237 694.709 480.51 686.706 480.243C684.302 480.163 683.865 479.854 682.511 478.328C681.537 473.342 686.493 466.383 689.966 463.07C693.44 459.755 696.694 458.664 701.217 457.517Z"/><defs><linearGradient id="gradient_2" gradientUnits="userSpaceOnUse" x1="475.96307" y1="425.28201" x2="489.66376" y2="371.00742"><stop offset="0" stop-color="#2B3F7F"/><stop offset="1" stop-color="#1878B1"/></linearGradient></defs><path fill="url(#gradient_2)" transform="matrix(1.99493 0 0 1.99537 0 1.52588e-05)" d="M341.677 392.914C378.574 383.269 411.705 379.031 449.853 383.479C478.238 386.788 505.554 391.701 534.083 394.75C560.788 397.604 579.875 396.259 605.644 396.708C602.213 398.034 600.668 397.149 597.984 397.88C598.899 399.32 604.041 402.311 606.196 404.487C611.704 403.977 620.167 402.87 625.012 405.388C618.625 407.22 602.075 409.322 595.323 410.089C569.745 412.886 543.941 412.933 518.353 410.23C494.925 407.817 471.864 403.212 448.618 400.358C431.267 398.246 413.795 397.287 396.317 397.488C386.231 394.319 344.42 394.649 341.677 392.914Z"/><defs><linearGradient id="gradient_3" gradientUnits="userSpaceOnUse" x1="847.43762" y1="489.77557" x2="764.48505" y2="473.14426"><stop offset="0" stop-color="#1D1D1D"/><stop offset="1" stop-color="#505050"/></linearGradient></defs><path fill="url(#gradient_3)" transform="matrix(1.99493 0 0 1.99537 0 1.52588e-05)" d="M780.922 443.837C791.023 443.78 827.776 441.792 834.622 446.644C838.313 449.259 840.296 453.503 841.032 457.862C842.384 465.858 841.604 476.064 836.722 482.823C831.717 489.751 824.964 491.765 816.931 493.004C825.728 500.38 836.179 509.159 844.451 516.982C837.722 516.858 830.857 516.888 824.115 516.847L796.665 493.172L788.976 493.145L788.722 484.168C788.651 482.295 788.535 481.908 789.12 480.179C792.419 479.398 815.025 479.746 821.341 479.29C824.973 477.158 825.627 476.357 827.773 472.971C828.172 466.999 828.126 463.356 827.819 457.396C813.719 456.611 796 457.114 781.636 457.144L781.594 516.776L768.402 516.863C768.469 508.759 767.352 449.231 769.543 446.784C772.631 443.337 776.715 443.892 780.922 443.837Z"/><defs><linearGradient id="gradient_4" gradientUnits="userSpaceOnUse" x1="449.43436" y1="479.34229" x2="520.69189" y2="480.77457"><stop offset="0" stop-color="#515151"/><stop offset="1" stop-color="#818080"/></linearGradient></defs><path fill="url(#gradient_4)" transform="matrix(1.99493 0 0 1.99537 0 1.52588e-05)" d="M473.231 443.84L515.171 443.866L515.176 457.132C500.497 457.215 485.81 457.416 471.129 457.2C459.352 456.633 458.421 473.222 470.924 473.632C475.659 473.212 484.56 474.462 489.029 473.59C517.343 468.067 535.827 497.036 510.611 514.639C506.841 517.271 497.28 516.975 491.695 516.949L449.645 516.936L449.696 503.713L498.881 503.797C501.943 503.788 504.204 503.341 506.467 501.058C507.999 499.511 508.91 496.227 508.597 494.235C506.106 478.349 467.601 494.595 455.8 481.786C451.795 478.18 448.898 472.686 448.885 466.915C448.846 450.008 458.779 444.359 473.231 443.84Z"/><path fill="#B1B0B0" transform="matrix(1.99493 0 0 1.99537 0 1.52588e-05)" d="M603.36 443.845C618.283 443.775 633.206 443.785 648.129 443.874L648.092 457.194L615.751 457.181C611.471 457.191 601.286 456.897 597.578 457.852C593.726 462.091 594.086 497.787 596.926 502.285C601.173 504.625 622.519 503.697 628.711 503.67L648.149 503.687L648.093 516.696L647.621 516.716C631.221 517.366 611.052 517.73 595.199 516.185C578.514 512.49 581.432 493.751 581.579 482.28C581.832 462.543 577.148 444.372 603.36 443.845Z"/><defs><linearGradient id="gradient_5" gradientUnits="userSpaceOnUse" x1="896.81616" y1="386.03296" x2="824.59131" y2="427.88293"><stop offset="0" stop-color="#161516"/><stop offset="1" stop-color="#3E3E3E"/></linearGradient></defs><path fill="url(#gradient_5)" transform="matrix(1.99493 0 0 1.99537 0 1.52588e-05)" d="M821.82 377.097C841.52 377.745 859.072 379.744 878.804 374.696C883.065 373.605 889.283 372.691 892.142 376.478C900.7 387.814 902.444 410.5 901.994 423.834C901.637 434.34 899.723 444.735 896.313 454.678C898.836 428.328 897.926 408.287 885.529 384.115C864.15 390.866 827.853 394.602 806.193 390.449C807.393 390.339 808.591 390.206 809.787 390.05C806.363 390.069 803.391 390.305 802.148 386.691C802.837 383.953 802.967 379.972 803.294 376.974C805.529 374.186 817.171 378.543 821.82 377.097Z"/><defs><linearGradient id="gradient_6" gradientUnits="userSpaceOnUse" x1="643.83191" y1="333.30408" x2="710.69702" y2="386.47531"><stop offset="0" stop-color="#8E8D8D"/><stop offset="1" stop-color="#C4C4C4"/></linearGradient></defs><path fill="url(#gradient_6)" transform="matrix(1.99493 0 0 1.99537 0 1.52588e-05)" d="M641.975 341.107C662.446 341.785 686.982 345.559 706.873 350.203C708.061 354.307 714.98 358.605 717.684 362.109C719.857 364.924 721.422 367.459 723.176 370.557C720.478 370.688 712.768 367.795 711.841 369.209C705.375 368.381 691.897 364.753 684.273 363.249C667.376 359.91 650.295 357.58 633.121 356.273C632.247 355.783 631.377 355.284 630.511 354.778C633.005 351.045 634.801 346.476 637.135 342.6C637.987 341.185 640.098 341.347 641.975 341.107Z"/><defs><linearGradient id="gradient_7" gradientUnits="userSpaceOnUse" x1="561.22479" y1="342.01468" x2="615.59967" y2="354.66296"><stop offset="0" stop-color="#393839"/><stop offset="1" stop-color="#707070"/></linearGradient></defs><path fill="url(#gradient_7)" transform="matrix(1.99493 0 0 1.99537 0 1.52588e-05)" d="M551.801 347.164C568.363 342.664 610.964 339.436 628.058 340.605C631.642 340.525 638.497 340.47 641.975 341.107C640.098 341.347 637.987 341.185 637.135 342.6C634.801 346.476 633.005 351.045 630.511 354.778C631.377 355.284 632.247 355.783 633.121 356.273C629.519 356.237 624.904 355.819 621.236 355.593C603.552 355.104 586.222 355.051 568.577 356.527C566.551 356.697 564.001 356.928 562.022 356.875C560.435 356.66 559.929 356.649 558.376 357.034L557.687 356.379L557.879 356.253C558.959 353.703 561.069 349.695 560.103 347.157C557.456 345.791 555.837 347.991 551.801 347.164Z"/><path fill="#8E8D8D" transform="matrix(1.99493 0 0 1.99537 0 1.52588e-05)" d="M628.058 340.605C631.642 340.525 638.497 340.47 641.975 341.107C640.098 341.347 637.987 341.185 637.135 342.6C634.801 346.476 633.005 351.045 630.511 354.778C631.377 355.284 632.247 355.783 633.121 356.273C629.519 356.237 624.904 355.819 621.236 355.593C619.658 354.148 618.585 354.266 616.395 354.019L615.549 353.927C615.117 352.219 618.498 343.963 619.363 341.539C622.324 341.515 625.384 341.762 628.058 340.605Z"/><path fill="#8E8D8D" transform="matrix(1.99493 0 0 1.99537 0 1.52588e-05)" d="M543.532 443.743L556.747 443.728L556.721 516.819L543.51 516.87L543.532 443.743Z"/><defs><linearGradient id="gradient_8" gradientUnits="userSpaceOnUse" x1="759.76422" y1="357.73441" x2="714.69092" y2="372.78671"><stop offset="0" stop-color="#7B7A7B"/><stop offset="1" stop-color="#B4B4B4"/></linearGradient></defs><path fill="url(#gradient_8)" transform="matrix(1.99493 0 0 1.99537 0 1.52588e-05)" d="M706.873 350.203C719.338 353.076 731.732 356.253 744.042 359.73C749.645 361.281 758.799 364.167 763.986 365.227C760.811 370.447 763.292 378.691 761.729 380.758C759.115 380.62 756.337 379.227 754.89 379.787L754.641 380.19C751.57 379.77 715.348 370.498 711.841 369.209C712.768 367.795 720.478 370.688 723.176 370.557C721.422 367.459 719.857 364.924 717.684 362.109C714.98 358.605 708.061 354.307 706.873 350.203Z"/><path fill="#07275E" transform="matrix(1.99493 0 0 1.99537 0 1.52588e-05)" d="M273.743 420.176C290.731 410.24 323.112 397.358 341.677 392.914C344.42 394.649 386.231 394.319 396.317 397.488C393.454 397.999 388.647 398.357 385.614 398.526C346.688 400.692 311.086 409.641 273.743 420.176Z"/><defs><linearGradient id="gradient_9" gradientUnits="userSpaceOnUse" x1="802.87964" y1="378.47449" x2="762.06628" y2="376.31409"><stop offset="0" stop-color="#494949"/><stop offset="1" stop-color="#7A7A7A"/></linearGradient></defs><path fill="url(#gradient_9)" transform="matrix(1.99493 0 0 1.99537 0 1.52588e-05)" d="M763.986 365.227C781.008 369.914 797.45 374.26 815.055 376.186C817.163 376.416 819.761 376.711 821.82 377.097C817.171 378.543 805.529 374.186 803.294 376.974C802.967 379.972 802.837 383.953 802.148 386.691C803.391 390.305 806.363 390.069 809.787 390.05C808.591 390.206 807.393 390.339 806.193 390.449C795.818 389.941 764.072 383.79 754.641 380.19L754.89 379.787C756.337 379.227 759.115 380.62 761.729 380.758C763.292 378.691 760.811 370.447 763.986 365.227Z"/><defs><linearGradient id="gradient_10" gradientUnits="userSpaceOnUse" x1="489.52878" y1="341.97699" x2="542.79248" y2="378.52408"><stop offset="0" stop-color="#0F0E0E"/><stop offset="1" stop-color="#363637"/></linearGradient></defs><path fill="url(#gradient_10)" transform="matrix(1.99493 0 0 1.99537 0 1.52588e-05)" d="M551.801 347.164C555.837 347.991 557.456 345.791 560.103 347.157C561.069 349.695 558.959 353.703 557.879 356.253L557.687 356.379L558.376 357.034C559.929 356.649 560.435 356.66 562.022 356.875C545.135 359.219 530.504 360.232 513.26 363.46C504.051 365.16 494.872 367.014 485.726 369.022C480.011 370.269 472.215 372.272 466.544 372.798C488.504 364.357 528.656 350.179 551.801 347.164Z"/><path fill="#2488C2" transform="matrix(1.99493 0 0 1.99537 0 1.52588e-05)" d="M686.063 383.87C674.033 394.586 640.423 404.32 625.012 405.388C620.167 402.87 611.704 403.977 606.196 404.487C604.041 402.311 598.899 399.32 597.984 397.88C600.668 397.149 602.213 398.034 605.644 396.708C610.646 395.817 619.466 395.959 624.944 395.478C646.875 393.552 665.711 392.586 686.063 383.87Z"/></svg>
