<?xml version="1.0" encoding="utf-8" ?><svg xmlns="http://www.w3.org/2000/svg" xmlns:xlink="http://www.w3.org/1999/xlink" width="1300" height="420" viewBox="530 690 1300 420"><defs><linearGradient id="gradient_0" gradientUnits="userSpaceOnUse" x1="700.14111" y1="968.95367" x2="849.92047" y2="994.92395"><stop offset="0" stop-color="#272727"/><stop offset="1" stop-color="#494748"/></linearGradient></defs><path fill="url(#gradient_0)" d="M751.192 908.46C775.447 906.297 812.973 906.147 833.013 920.95C843.693 928.83 850.794 940.64 852.744 953.769C859.579 1000.47 853.254 1048.7 798.239 1056.8C759.218 1061.49 704.37 1055.99 698.705 1008.16C693.252 962.117 697.129 916.608 751.192 908.46ZM796.195 1030.35C834.641 1024.73 830.859 991.984 828.088 962.173C824.855 927.403 779.033 932.519 755.11 933.27C727.762 938.155 721.492 954.461 721.454 979.936C721.431 995.436 721.641 1014.19 736.348 1024.09C748.965 1032.58 781.606 1033.49 796.195 1030.35Z"/><defs><linearGradient id="gradient_1" gradientUnits="userSpaceOnUse" x1="1683.0498" y1="997.26758" x2="1528.4641" y2="970.7381"><stop offset="0" stop-color="#292829"/><stop offset="1" stop-color="#504E4F"/></linearGradient></defs><path fill="url(#gradient_1)" d="M1542.69 910.368C1559.86 909.461 1580.33 910.247 1597.94 909.897C1615.43 910.012 1634.61 909.023 1651.88 910.738C1685.4 914.068 1684.06 964.694 1669.77 985.81C1659.67 1000.73 1649.1 1004.3 1632.63 1007.89C1647.47 1023.96 1666.92 1038.84 1682.47 1054.6C1671.12 1055.21 1656.49 1055.45 1645.23 1055C1628.13 1042.11 1604.76 1021.55 1589.38 1007C1584.99 1007.3 1579.5 1008.26 1575.78 1006.5C1573.55 1003.54 1574.25 1004.28 1573.87 999.956C1573.79 996.313 1573.28 982.038 1575.64 981.83C1598.45 979.824 1624.92 986.524 1645.69 974.769C1651.82 965.732 1656.1 948.689 1649.34 939.12C1641.45 933.565 1572.85 935.557 1559.04 935.97L1559.24 1054.96C1550.65 1054.94 1542.06 1054.79 1533.48 1054.53C1532.88 1034.4 1529.78 928.481 1534.28 917.347C1535.84 913.482 1539.08 911.928 1542.69 910.368Z"/><defs><linearGradient id="gradient_2" gradientUnits="userSpaceOnUse" x1="896.39716" y1="970.53259" x2="1038.9447" y2="995.26154"><stop offset="0" stop-color="#545253"/><stop offset="1" stop-color="#7D7C7D"/></linearGradient></defs><path fill="url(#gradient_2)" d="M938.389 909.439C967.997 909.865 997.609 910.025 1027.22 909.919L1027.76 935.935C1006.74 937.152 969.612 937.857 948.848 936.494C910.911 934.004 916.596 965.521 936.399 968.341C969.948 973.12 1037.17 953.814 1040.29 1008.84C1042.29 1044.06 1018.72 1054.45 987.951 1054.67C957.86 1054.35 927.766 1054.42 897.676 1054.87C897.495 1046.22 897.575 1037.22 897.539 1028.53C930.438 1029.29 963.521 1028.92 996.442 1028.89C1009.56 1028.88 1016.36 1021.13 1013.95 1008.18C1010.8 991.515 981.742 994.786 968.628 995.105C943.565 995.715 902.024 998.749 897.112 964.429C892.583 932.78 905.183 913.282 938.389 909.439Z"/><path fill="#235291" d="M673.821 810.049C725.114 792.234 823.305 781.983 877.15 787.907C871.587 788.434 862.36 788.275 858.215 788.885C872.791 791.593 887.523 793.099 902.187 795.428C969.561 806.129 1035.67 828.772 1104.05 832.323C1144.01 834.398 1184.71 832.328 1224.69 831.8C1236.04 831.653 1249.49 829.126 1260.31 829.894C1243.23 834.582 1218.92 837.657 1201.5 840.049C1096.69 854.434 994.881 837.393 891.509 821.711C871.976 818.748 848.041 818.272 827.753 816.941C825.126 815.096 802.262 816.283 797.389 815.871C768.573 813.433 740.171 810.697 711.167 810.914C699.983 810.998 684.64 811.717 673.821 810.049Z"/><defs><linearGradient id="gradient_3" gradientUnits="userSpaceOnUse" x1="1485.0828" y1="995.62842" x2="1340.7444" y2="971.51666"><stop offset="0" stop-color="#5B595A"/><stop offset="1" stop-color="#868586"/></linearGradient></defs><path fill="url(#gradient_3)" d="M1404.07 909.447C1423.71 908.718 1460.01 908.05 1477.76 913.095C1482.6 932.379 1480.75 961.558 1480.67 982.109L1480.91 1054.12C1472.97 1054.52 1463.73 1054.3 1455.69 1054.3C1455.21 1014.87 1455.65 974.583 1455.62 935.083L1415.17 935.561C1360.16 937.624 1360.97 968.019 1361.25 1012.86L1361.46 1054.26C1353 1054.39 1344.53 1054.37 1336.07 1054.18C1335.43 1041.89 1336.57 1028.58 1335.86 1016.48C1332.84 964.56 1342.04 915.511 1404.07 909.447Z"/><path fill="#A2A1A1" d="M1191.12 910.448C1221.62 909.19 1261.61 910.013 1292.49 910.427L1292.41 935.709C1275.36 935.09 1202.24 933.066 1190.9 939.365C1182.55 950.066 1182.66 1014.03 1191.88 1026.18C1195.93 1031.53 1232.46 1029.7 1241.12 1029.6L1292.32 1029.17C1292.54 1037.49 1292.81 1045.81 1293.12 1054.13C1269.6 1054.24 1194 1058.14 1176.55 1048.3C1168.41 1043.71 1163.87 1035.86 1161.73 1027.01C1159.41 1017.44 1159.88 954.141 1161.61 942.723C1162.54 936.551 1164.33 930.444 1167.69 925.131C1173.25 916.34 1181.32 912.515 1191.12 910.448Z"/><path fill="#A2A1A1" d="M1290.31 705.976C1335.75 706.399 1447.91 729.064 1491.66 744.65C1499.1 749.282 1511.61 773.341 1508.49 781.163L1506.94 782.749C1491.73 777.839 1468.89 772.836 1452.77 768.458C1392.38 752.06 1331.26 739.145 1268.67 734.985C1264.35 733.179 1251.97 732.062 1246.88 731.453C1252.56 725.914 1256.76 720.45 1261.95 714.583C1270.5 704.918 1279.09 706.644 1290.31 705.976Z"/><defs><linearGradient id="gradient_4" gradientUnits="userSpaceOnUse" x1="1123.7546" y1="777.38593" x2="1119.6522" y2="831.71063"><stop offset="0" stop-color="#1E76AF" stop-opacity="0.96862745"/><stop offset="1" stop-color="#1E76AF"/></linearGradient></defs><path fill="url(#gradient_4)" d="M877.15 787.907C889.288 787.411 911.137 790.697 923.449 792.289C951.066 795.892 978.615 800.03 1006.13 804.378C1075.1 815.279 1144.37 818.035 1214.1 815.127C1261.8 813.138 1311.11 810.903 1356.46 794.517C1360.86 792.925 1365.35 791.125 1369.79 789.687C1345.79 808.006 1290.6 827.572 1260.31 829.894C1249.49 829.126 1236.04 831.653 1224.69 831.8C1184.71 832.328 1144.01 834.398 1104.05 832.323C1035.67 828.772 969.561 806.129 902.187 795.428C887.523 793.099 872.791 791.593 858.215 788.885C862.36 788.275 871.587 788.434 877.15 787.907Z"/><path fill="#383838" d="M1186.35 704.78C1202.89 702.754 1274.72 702.124 1290.31 705.976C1279.09 706.644 1270.5 704.918 1261.95 714.583C1256.76 720.45 1252.56 725.914 1246.88 731.453C1251.97 732.062 1264.35 733.179 1268.67 734.985C1258.41 734.558 1232.19 734.45 1223.35 733.101C1158.25 732.508 1097.91 735.035 1033.75 747.521C1010.62 752.021 987.387 755.156 964.51 761.437C962.201 761.062 960.45 760.815 958.177 760.153C959.396 756.913 979.711 754.554 988.038 748.223L988.069 746.162C1043.3 725.186 1128.57 709.952 1186.35 704.78Z"/><path fill="#706D6E" d="M1186.35 704.78C1202.89 702.754 1274.72 702.124 1290.31 705.976C1279.09 706.644 1270.5 704.918 1261.95 714.583C1256.76 720.45 1252.56 725.914 1246.88 731.453C1251.97 732.062 1264.35 733.179 1268.67 734.985C1258.41 734.558 1232.19 734.45 1223.35 733.101C1213.3 729.651 1176.96 733.114 1170.05 729.477C1171.2 729.076 1172.62 728.58 1174.32 727.988C1178.83 722.699 1183.89 713.657 1186.98 707.884L1178.86 707.716C1181.43 706.837 1183.84 705.81 1186.35 704.78Z"/><defs><linearGradient id="gradient_5" gradientUnits="userSpaceOnUse" x1="1714.7472" y1="912.50427" x2="1719.4261" y2="771.42224"><stop offset="0" stop-color="#222" stop-opacity="0.94117647"/><stop offset="1" stop-color="#222"/></linearGradient></defs><path fill="url(#gradient_5)" d="M1648.44 777.142C1691.34 779.48 1724.34 777.918 1766.77 769.975C1792.77 765.109 1799.16 844.722 1799.93 860.078C1801.27 886.977 1796.07 905.084 1787.4 930.421C1790.02 888.31 1792.87 857.864 1777.09 816.076C1774.3 808.662 1770.5 797.923 1765.98 791.544C1720.63 802.268 1667.22 810.946 1620.63 804.063C1627.38 803.226 1637.47 805.053 1642.37 803.634C1638.63 798.882 1637.5 786.082 1639.98 780.431C1643.63 777.218 1642.9 778.196 1648.44 777.142Z"/><path fill="#706D6E" d="M1491.66 744.65C1497.43 746.01 1540.44 757.595 1544.64 759.595C1582.08 768.328 1610.05 773.623 1648.44 777.142C1642.9 778.196 1643.63 777.218 1639.98 780.431C1637.5 786.082 1638.63 798.882 1642.37 803.634C1637.47 805.053 1627.38 803.226 1620.63 804.063C1609.84 805.876 1556.79 794.37 1544.76 791.618C1532.31 789.283 1519.3 785.824 1506.94 782.749L1508.49 781.163C1511.61 773.341 1499.1 749.282 1491.66 744.65Z"/><defs><linearGradient id="gradient_6" gradientUnits="userSpaceOnUse" x1="1636.7291" y1="778.79858" x2="1580.6757" y2="791.4339"><stop offset="0" stop-color="#343434"/><stop offset="1" stop-color="#595758"/></linearGradient></defs><path fill="url(#gradient_6)" d="M1544.64 759.595C1582.08 768.328 1610.05 773.623 1648.44 777.142C1642.9 778.196 1643.63 777.218 1639.98 780.431C1637.5 786.082 1638.63 798.882 1642.37 803.634C1637.47 805.053 1627.38 803.226 1620.63 804.063C1609.84 805.876 1556.79 794.37 1544.76 791.618C1555.07 784.354 1576.28 799.986 1581.51 793.14C1580.72 783.808 1580.09 780.141 1575.62 772.023C1562.43 764.973 1565.03 768.714 1551.36 765.304C1546.71 764.144 1546.29 762.891 1544.64 759.595Z"/><path fill="#A2A1A1" d="M1085.21 909.837C1093.31 909.718 1101.81 909.914 1109.95 909.972C1108.6 956.141 1109.54 1007.62 1109.77 1054.12C1101.68 1054.39 1092.85 1054.26 1084.7 1054.31C1084.8 1008.36 1083.37 955.253 1085.21 909.837Z"/><defs><linearGradient id="gradient_7" gradientUnits="userSpaceOnUse" x1="666.03503" y1="845.44781" x2="663.01562" y2="813.51123"><stop offset="0" stop-color="#09255E" stop-opacity="0.96078432"/><stop offset="1" stop-color="#09255E"/></linearGradient></defs><path fill="url(#gradient_7)" d="M553.332 859.366C581.635 840.848 640.644 820.06 673.821 810.049C684.64 811.717 699.983 810.998 711.167 810.914C740.171 810.697 768.573 813.433 797.389 815.871C802.262 816.283 825.126 815.096 827.753 816.941C821.868 817.653 798.589 817.168 791.025 817.394C767.364 818.102 743.762 820.128 720.326 823.462C684.905 828.381 649.744 835.02 614.968 843.355C594.587 848.309 573.573 855.471 553.332 859.366Z"/><path d="M938.006 765.879C955.294 758.345 970.194 752.1 988.069 746.162L988.038 748.223C979.711 754.554 959.396 756.913 958.177 760.153C960.45 760.815 962.201 761.062 964.51 761.437C954.688 762.936 948.728 765.093 938.006 765.879Z"/></svg>